<?xml version="1.0" standalone="no"?>
<!DOCTYPE svg PUBLIC "-//W3C//DTD SVG 20010904//EN"
 "http://www.w3.org/TR/2001/REC-SVG-20010904/DTD/svg10.dtd">
<svg version="1.0" xmlns="http://www.w3.org/2000/svg"
 width="700.000000pt" height="700.000000pt" viewBox="0 0 700.000000 700.000000"
 preserveAspectRatio="xMidYMid meet">
<metadata>
Created by potrace 1.14, written by Peter Selinger 2001-2017
</metadata>
<g transform="translate(0.000000,700.000000) scale(0.100000,-0.100000)"
fill="#000000" stroke="none">
<path d="M3250 6930 c-319 -20 -642 -87 -925 -191 -299 -110 -697 -341 -990
-575 -136 -109 -405 -377 -506 -504 -437 -551 -691 -1170 -759 -1849 -54 -543
87 -1287 346 -1816 475 -974 1386 -1670 2454 -1874 271 -51 679 -70 945 -42
452 47 918 183 1281 375 472 250 832 558 1151 985 168 224 243 344 343 546
110 222 167 381 231 639 97 385 125 633 116 995 -14 530 -117 940 -354 1401
-121 236 -195 360 -295 496 -480 648 -1153 1112 -1895 1304 -352 92 -780 133
-1143 110z m1510 -1360 l0 -60 -605 0 -605 0 0 -259 c0 -289 -7 -262 72 -275
28 -5 48 -19 83 -59 63 -71 75 -97 82 -178 l6 -69 -293 0 -293 0 7 66 c9 85
25 122 76 177 45 49 93 77 134 77 l26 0 0 260 0 260 -605 0 -605 0 0 60 0 60
1260 0 1260 0 0 -60z m-870 -1560 l0 -50 -160 0 -160 0 0 -240 0 -240 175 0
175 0 0 140 0 140 225 0 225 0 0 -140 0 -140 195 0 195 0 0 -55 0 -55 -1260 0
-1260 0 0 55 0 55 210 0 210 0 0 140 0 140 225 0 225 0 0 -140 0 -140 170 0
170 0 0 240 0 240 -170 0 -170 0 0 50 0 50 390 0 390 0 0 -50z m-1638 -1486
l108 -26 0 -33 0 -33 -87 -7 c-49 -3 -94 -7 -102 -8 -8 -1 -27 -42 -45 -97
-18 -52 -38 -105 -44 -117 -15 -27 -57 -31 -66 -7 -12 32 -5 110 14 153 11 24
20 45 20 47 0 2 -18 4 -40 4 -40 0 -40 0 -40 39 0 45 10 51 76 51 43 0 84 24
84 50 0 13 -2 14 122 -16z m601 6 c5 -4 12 -24 17 -44 7 -34 5 -39 -21 -58
-34 -25 -37 -38 -10 -38 31 0 61 -32 67 -71 6 -35 4 -39 -52 -83 -92 -72 -169
-109 -210 -102 l-34 7 0 67 c0 80 17 146 61 244 47 104 43 101 113 93 34 -4
65 -11 69 -15z m271 10 c22 -8 24 -14 20 -47 -12 -90 -16 -104 -40 -133 l-26
-30 79 1 c43 0 94 5 113 12 31 11 38 19 60 83 14 39 32 79 40 89 35 42 114 42
130 1 6 -16 23 -27 54 -36 50 -14 50 -28 -2 -49 -15 -6 -40 -16 -57 -22 l-30
-12 30 -6 c23 -5 31 -12 33 -33 3 -29 4 -29 -90 -49 -56 -12 -67 -23 -68 -67
0 -12 70 -10 138 4 19 4 22 0 22 -25 0 -26 -5 -31 -47 -45 -26 -9 -66 -16 -89
-16 -38 0 -47 5 -88 51 l-45 50 -125 -40 c-69 -23 -134 -41 -144 -41 -50 0
-61 79 -24 163 18 41 121 207 128 207 2 0 14 -4 28 -10z m1554 0 c6 0 12 -9
12 -20 0 -17 7 -20 43 -20 53 0 67 -13 67 -62 0 -40 -16 -55 -132 -122 -51
-28 -65 -49 -92 -133 l-17 -52 -35 16 c-32 16 -34 19 -28 52 4 20 18 65 31
101 14 36 28 90 32 121 8 70 51 134 85 125 11 -3 27 -6 34 -6z m324 -17 c2
-21 11 -29 46 -41 23 -7 42 -17 42 -21 0 -14 -54 -34 -105 -40 l-50 -6 45 -16
c35 -12 44 -20 42 -35 -6 -30 -15 -35 -76 -41 -62 -6 -65 -9 -76 -59 -8 -33
-7 -34 19 -27 14 3 36 10 49 14 13 5 46 9 73 9 38 0 49 -4 49 -16 0 -48 -65
-84 -151 -84 -45 0 -55 4 -85 34 -25 25 -34 43 -34 68 1 52 17 112 51 184 34
72 73 104 126 104 27 0 32 -4 35 -27z m-2468 7 c26 -9 26 -11 26 -112 0 -64
-6 -118 -15 -143 -8 -22 -14 -54 -15 -72 0 -34 -21 -53 -59 -53 -22 0 -27 20
-22 83 2 26 0 27 -26 21 -75 -18 -93 -32 -93 -71 0 -28 -11 -34 -49 -27 -25 5
-32 12 -37 40 -10 52 -1 71 95 199 103 137 134 159 195 135z m1318 -17 c10 -9
18 -30 18 -50 l0 -33 -50 2 c-42 2 -54 -2 -75 -23 l-26 -25 51 -23 c50 -23 50
-23 50 -71 0 -43 -4 -50 -35 -74 -103 -79 -215 -73 -215 10 l0 34 48 0 c38 0
53 5 71 24 19 20 20 24 7 29 -9 4 -16 13 -16 20 0 8 -11 19 -24 25 -17 8 -26
22 -31 51 -6 36 -4 44 17 61 68 57 171 78 210 43z m289 7 c35 -19 25 -64 -23
-101 -65 -49 -128 -111 -143 -139 l-13 -25 88 0 c104 0 109 3 191 124 95 139
127 163 196 145 23 -6 26 -15 38 -156 6 -63 5 -68 -13 -68 -15 0 -21 -9 -26
-46 -3 -26 -6 -60 -6 -75 0 -30 -8 -33 -48 -22 -22 5 -23 9 -17 64 7 58 7 59
-18 59 -24 0 -25 2 -16 33 5 17 21 42 35 53 15 12 22 24 16 28 -6 3 -29 -16
-51 -43 -31 -37 -41 -57 -41 -85 0 -24 -6 -38 -19 -45 -10 -6 -24 -24 -31 -41
-14 -34 -20 -36 -60 -15 -19 10 -30 23 -30 36 0 11 -3 19 -7 17 -85 -44 -168
-62 -212 -47 -92 32 -75 162 35 273 80 81 127 101 175 76z m-2100 -670 c5 0 9
-9 9 -20 0 -18 7 -20 59 -20 63 0 61 2 75 -61 5 -22 -1 -31 -37 -56 -23 -17
-50 -32 -60 -34 -15 -3 -8 -16 40 -66 70 -76 89 -79 98 -20 10 58 38 127 87
211 22 39 42 72 43 74 7 9 55 -20 55 -33 0 -12 13 -15 60 -15 44 0 60 -4 60
-14 0 -7 3 -27 6 -44 6 -27 3 -31 -31 -42 -20 -7 -39 -19 -42 -29 -3 -9 -13
-24 -20 -33 -8 -9 -12 -22 -8 -28 10 -16 86 -70 99 -70 6 0 19 19 29 43 9 23
56 89 103 146 l86 103 40 -5 c22 -3 44 -9 49 -14 5 -5 12 -60 16 -121 5 -100
4 -112 -10 -112 -17 0 -22 -14 -31 -94 -4 -27 -7 -51 -9 -52 -2 -2 -16 0 -33
5 -27 7 -29 11 -32 64 -2 31 -4 57 -6 57 -1 0 -23 -7 -49 -16 -42 -14 -45 -17
-37 -39 8 -21 4 -26 -28 -45 -82 -49 -129 -36 -214 60 -29 33 -60 60 -69 60
-11 0 -21 -18 -32 -58 -21 -77 -35 -87 -115 -87 l-65 0 -49 55 c-27 30 -52 67
-55 83 -4 20 -11 27 -29 27 -21 0 -26 -8 -41 -60 -16 -58 -17 -60 -50 -60
l-33 0 0 54 c0 46 9 73 65 186 50 102 69 131 81 126 9 -3 20 -6 25 -6z m3054
-16 c8 -16 14 -18 38 -10 18 7 49 6 93 -1 44 -8 75 -8 93 -2 16 6 57 9 91 7
61 -3 64 -4 72 -33 4 -16 5 -38 2 -47 -7 -22 -54 -25 -54 -4 0 13 -6 13 -45
-1 -25 -8 -45 -19 -45 -23 0 -5 20 -23 45 -41 33 -24 46 -41 51 -66 10 -51 -8
-78 -79 -117 -70 -39 -119 -46 -155 -20 -19 13 -22 24 -20 57 l3 42 53 3 c28
2 52 7 52 11 0 4 -13 39 -28 77 -32 78 -48 86 -130 63 -53 -15 -68 -36 -108
-154 -28 -83 -29 -85 -61 -85 l-33 0 0 53 c0 30 6 75 14 101 l15 48 -34 14
c-56 23 -80 18 -114 -23 -17 -21 -47 -77 -67 -124 l-36 -86 -41 9 c-23 5 -43
10 -44 12 -2 2 -8 30 -14 62 -6 32 -13 70 -16 83 -3 19 -10 11 -37 -47 -34
-69 -65 -102 -97 -102 -21 0 -29 20 -29 75 0 33 9 56 39 101 62 92 93 118 134
110 18 -3 46 -19 62 -36 l28 -29 33 43 c43 57 140 97 159 66 3 -5 30 -10 59
-10 40 0 61 6 87 24 39 28 50 27 64 0z m-755 -20 c0 -21 5 -24 40 -24 36 0 40
-3 40 -25 0 -21 -7 -26 -45 -36 -48 -12 -57 -23 -25 -32 13 -3 20 -14 20 -31
0 -23 -5 -26 -60 -37 -61 -12 -82 -27 -95 -67 -6 -22 -5 -23 44 -17 166 17
151 18 142 -7 -15 -41 -52 -59 -133 -65 -75 -6 -77 -5 -103 23 -25 27 -27 34
-22 89 7 75 39 168 72 211 41 54 125 66 125 18z m-2516 6 c6 -6 13 -58 14
-116 4 -98 2 -106 -16 -111 -20 -5 -32 -44 -32 -105 0 -24 -4 -28 -30 -28 -30
0 -30 1 -30 55 0 30 -2 55 -5 55 -19 0 -68 -35 -98 -70 -30 -36 -38 -40 -63
-34 -37 9 -44 20 -44 68 0 35 11 55 86 153 104 137 127 157 173 149 19 -3 39
-10 45 -16z m2043 14 c13 -4 28 -21 37 -45 9 -21 18 -39 21 -39 3 0 24 12 46
26 50 31 98 40 121 22 9 -7 20 -34 23 -60 6 -40 5 -48 -9 -48 -16 0 -18 -5
-36 -95 -19 -89 -28 -105 -66 -105 -30 0 -34 3 -40 35 -3 19 -4 54 -3 79 4 48
-6 50 -45 7 -10 -11 -34 -25 -53 -32 -39 -13 -53 -3 -53 38 0 43 -20 32 -57
-32 -20 -36 -43 -65 -49 -65 -7 0 -14 -7 -18 -15 -7 -20 -52 -19 -60 1 -18 47
4 93 110 234 74 98 85 106 131 94z m-284 -11 c2 -5 7 -24 11 -43 6 -35 6 -35
-52 -58 -63 -25 -127 -75 -137 -109 -5 -19 -3 -20 27 -14 43 10 68 24 92 50
19 21 60 27 84 13 17 -11 -8 -93 -64 -204 l-44 -87 -31 9 c-18 5 -33 11 -35
12 -3 4 13 88 21 111 6 14 1 17 -33 17 -89 0 -120 40 -101 130 9 40 21 58 79
114 67 65 69 66 123 66 31 0 58 -3 60 -7z m-249 -9 c14 -5 14 -9 2 -32 -8 -15
-26 -38 -40 -51 -38 -35 -81 -108 -100 -167 -19 -57 -39 -80 -75 -86 -34 -4
-60 43 -70 124 l-7 63 -47 -92 c-47 -93 -62 -106 -96 -84 -7 5 -16 31 -19 59
-4 44 0 56 30 103 20 30 53 74 75 99 37 41 42 44 65 33 14 -6 42 -26 61 -43
l36 -31 15 29 c25 49 72 82 116 82 21 0 45 -3 54 -6z"/>
<path d="M3446 4900 c-37 -12 -73 -46 -97 -92 l-19 -38 169 0 170 0 -9 30
c-12 42 -17 48 -61 76 -44 27 -109 38 -153 24z"/>
<path d="M2760 3570 l0 -90 125 0 125 0 0 90 0 90 -125 0 -125 0 0 -90z"/>
<path d="M4040 3560 l0 -80 115 0 115 0 0 80 0 80 -115 0 -115 0 0 -80z"/>
<path d="M2705 2295 c-3 -8 -7 -22 -10 -30 -6 -20 20 -19 71 4 64 29 64 41 -1
41 -41 0 -57 -4 -60 -15z"/>
</g>
</svg>
