<?xml version="1.0" standalone="no"?>
<!DOCTYPE svg PUBLIC "-//W3C//DTD SVG 20010904//EN"
 "http://www.w3.org/TR/2001/REC-SVG-20010904/DTD/svg10.dtd">
<svg version="1.0" xmlns="http://www.w3.org/2000/svg"
 width="700.000000pt" height="700.000000pt" viewBox="0 0 700.000000 700.000000"
 preserveAspectRatio="xMidYMid meet">
<metadata>
Created by potrace 1.14, written by Peter Selinger 2001-2017
</metadata>
<g transform="translate(0.000000,700.000000) scale(0.100000,-0.100000)"
fill="#000000" stroke="none">
<path d="M3145 6844 c-352 -27 -792 -158 -1156 -343 -309 -156 -548 -330 -842
-611 -431 -411 -766 -978 -907 -1533 -69 -272 -89 -440 -90 -727 -1 -821 197
-1491 613 -2072 154 -216 464 -545 657 -698 407 -323 897 -543 1485 -667 161
-34 182 -36 413 -40 656 -13 1182 94 1681 343 701 348 1247 920 1566 1638 112
250 220 604 260 846 43 261 40 749 -5 1045 -108 703 -474 1390 -1021 1920
-151 147 -255 231 -419 340 -435 290 -870 464 -1350 541 -82 13 -185 17 -470
19 -201 1 -387 1 -415 -1z m1615 -949 l0 -55 -605 0 -605 0 2 -262 3 -262 54
-10 c50 -10 60 -17 107 -73 56 -66 74 -110 74 -185 l0 -48 -285 0 -285 0 0 53
c0 89 16 126 84 193 49 50 69 63 104 69 l42 7 0 259 0 259 -605 0 -605 0 0 55
0 55 1260 0 1260 0 0 -55z m-870 -1555 l0 -50 -160 0 -160 0 0 -245 0 -245
175 0 175 0 0 145 0 145 230 0 230 0 0 -145 0 -145 190 0 190 0 0 -50 0 -50
-1260 0 -1260 0 0 50 0 50 210 0 210 0 0 145 0 145 225 0 224 0 3 -142 3 -143
168 -3 167 -2 0 245 0 245 -165 0 -165 0 0 50 0 50 385 0 385 0 0 -50z m-1582
-1501 c50 -12 52 -14 52 -45 l0 -32 -87 -7 c-49 -3 -94 -7 -102 -8 -7 -1 -28
-46 -47 -102 -19 -55 -37 -108 -40 -117 -10 -28 -60 -24 -68 5 -10 36 -6 79
10 122 30 78 30 75 -15 75 l-41 0 0 39 0 39 66 7 c55 6 68 12 86 35 l20 28 57
-14 c31 -7 80 -19 109 -25z m540 20 c12 -5 22 -16 22 -26 0 -10 3 -27 5 -38 4
-14 -3 -26 -25 -40 -16 -11 -30 -22 -30 -25 0 -4 16 -12 36 -19 36 -13 54 -41
54 -85 0 -23 -18 -39 -122 -108 -74 -50 -103 -60 -144 -52 -34 6 -34 6 -34 63
0 69 20 150 61 245 43 98 50 105 107 98 26 -2 57 -9 70 -13z m294 -50 c-2 -32
-13 -74 -28 -103 l-24 -48 101 4 c117 4 117 4 148 108 24 78 48 100 111 100
33 0 42 -4 49 -22 5 -14 25 -28 57 -38 l49 -17 -35 -22 c-19 -12 -53 -26 -75
-32 -22 -7 -35 -13 -30 -14 6 -2 22 -6 38 -9 20 -5 27 -12 27 -31 0 -25 -19
-34 -112 -51 -21 -3 -38 -11 -38 -18 0 -6 -3 -21 -7 -34 l-6 -24 82 7 81 8 0
-25 c0 -32 -35 -49 -116 -55 l-60 -5 -46 52 -46 52 -105 -35 c-146 -50 -175
-54 -192 -31 -35 46 -5 146 83 276 47 69 55 76 75 69 20 -8 22 -14 19 -62z
m1555 51 c2 0 3 -7 3 -15 0 -11 11 -15 38 -15 48 0 62 -14 62 -61 0 -41 -25
-66 -105 -107 -62 -31 -91 -63 -109 -123 -10 -30 -19 -60 -22 -67 -3 -10 -11
-9 -35 4 -30 15 -31 18 -25 60 3 25 17 73 31 108 14 34 25 77 25 94 0 42 16
82 47 114 22 23 29 25 56 17 18 -5 33 -9 34 -9z m303 -8 c0 -24 6 -29 45 -41
25 -7 45 -16 45 -20 0 -15 -49 -35 -100 -40 l-55 -7 45 -15 c38 -14 45 -20 42
-39 -1 -13 -4 -25 -6 -27 -1 -2 -31 -6 -65 -9 -67 -7 -70 -10 -81 -60 -9 -39
-12 -38 60 -19 30 8 72 15 93 15 32 0 37 -3 37 -22 0 -13 -4 -28 -8 -35 -12
-20 -90 -43 -142 -43 -39 0 -54 5 -80 30 -32 30 -33 31 -28 103 9 114 73 235
133 250 51 12 65 8 65 -21z m-2442 -111 c1 -65 -2 -118 -7 -125 -6 -7 -13 -38
-17 -69 -6 -52 -9 -56 -36 -63 -40 -8 -51 5 -47 60 3 25 3 46 1 46 -2 0 -28
-7 -58 -16 -51 -15 -54 -17 -60 -55 -7 -41 -16 -45 -57 -30 -18 7 -26 20 -31
46 -6 32 -2 45 30 94 58 88 153 209 172 221 9 5 37 9 62 7 l45 -2 3 -114z
m1294 102 c11 -9 18 -30 18 -50 l0 -33 -51 1 c-42 2 -55 -2 -76 -24 l-26 -25
52 -22 c52 -23 57 -31 52 -90 -3 -34 -24 -55 -84 -85 -91 -45 -167 -27 -167
41 l0 34 53 0 c44 0 58 4 77 25 19 21 21 25 7 25 -10 0 -17 8 -17 19 0 12 -11
23 -29 29 -22 8 -29 18 -35 48 -5 34 -3 42 22 62 67 57 166 79 204 45z m306
-30 c3 -28 -4 -37 -67 -87 -60 -48 -103 -93 -124 -131 -3 -6 30 -10 90 -10
l95 0 30 35 c16 19 49 65 73 102 78 118 120 148 182 132 23 -6 28 -23 38 -145
7 -71 6 -77 -13 -81 -16 -5 -21 -17 -27 -77 -7 -73 -10 -76 -53 -65 -23 7 -24
16 -6 102 4 18 0 22 -21 22 -14 0 -25 6 -25 13 0 31 14 56 36 67 26 14 32 30
12 29 -7 0 -30 -21 -50 -45 -28 -33 -38 -55 -38 -79 0 -23 -6 -38 -19 -44 -10
-6 -24 -24 -31 -41 -15 -35 -12 -34 -50 -15 -21 11 -30 23 -30 40 l0 24 -42
-24 c-53 -29 -149 -48 -182 -35 -13 4 -33 21 -45 36 -18 23 -21 36 -15 69 9
61 52 131 112 186 82 75 164 86 170 22z m-2111 -654 c4 -15 17 -19 66 -21 l61
-3 8 -40 c8 -37 7 -42 -24 -67 -18 -16 -43 -31 -55 -34 -13 -3 -23 -9 -23 -13
0 -16 106 -121 125 -123 16 -3 20 5 27 48 9 61 34 121 88 214 34 57 43 67 61
63 12 -4 24 -14 26 -25 5 -15 15 -18 64 -18 43 0 59 -4 59 -14 0 -7 3 -27 6
-43 5 -27 2 -31 -35 -45 -26 -11 -41 -23 -41 -34 0 -10 -8 -26 -17 -36 -11
-12 -13 -22 -7 -26 5 -4 31 -22 58 -40 26 -19 48 -32 49 -30 2 1 12 24 24 49
22 47 118 172 171 223 28 26 34 27 69 19 35 -8 38 -12 45 -53 3 -25 7 -78 7
-117 1 -58 -2 -73 -14 -73 -14 0 -17 -11 -29 -104 -6 -47 -5 -45 -38 -39 -27
5 -28 8 -28 65 0 59 -1 60 -25 54 -63 -16 -76 -25 -73 -53 3 -22 -4 -31 -37
-50 -75 -43 -123 -27 -205 67 -48 56 -90 78 -90 48 0 -33 -24 -93 -45 -114
-28 -28 -86 -32 -138 -11 -35 15 -117 113 -117 140 0 11 -8 17 -24 17 -22 0
-27 -8 -42 -60 -16 -59 -17 -60 -52 -60 l-35 0 5 58 c8 82 122 312 151 304 11
-3 22 -13 24 -23z m3053 -4 c0 -10 7 -12 30 -5 17 5 58 5 95 -1 45 -6 80 -6
111 2 43 11 128 8 141 -5 4 -3 7 -25 7 -48 1 -37 -2 -43 -20 -46 -15 -2 -23 3
-27 17 -5 20 -7 20 -51 5 -25 -9 -46 -19 -46 -24 0 -4 23 -25 50 -46 48 -36
50 -40 50 -86 l0 -47 -72 -41 c-79 -43 -124 -50 -163 -24 -20 13 -25 25 -25
55 l0 39 61 0 c54 0 60 2 55 18 -56 151 -57 152 -97 152 -21 0 -56 -7 -78 -16
-33 -13 -43 -25 -69 -82 -17 -37 -36 -86 -42 -109 -10 -40 -13 -43 -45 -43
-34 0 -35 1 -35 43 0 23 7 69 15 101 9 33 14 60 13 60 -25 14 -65 26 -89 26
-37 0 -80 -57 -126 -168 -29 -73 -33 -77 -60 -73 -15 1 -35 7 -45 12 -17 9
-37 85 -39 147 0 37 -1 36 -35 -33 -36 -74 -73 -115 -104 -115 -14 0 -20 10
-25 43 -8 55 9 97 70 177 44 57 49 60 89 60 34 0 48 -6 71 -30 l28 -29 46 49
c55 58 84 67 167 51 57 -12 66 -11 108 8 25 11 46 25 46 31 0 8 6 8 20 0 11
-6 20 -17 20 -25z m-3272 -13 c8 -10 12 -52 12 -119 0 -95 -2 -103 -19 -103
-16 0 -20 -10 -26 -65 -7 -60 -9 -65 -31 -65 -22 0 -24 4 -24 55 0 30 -2 55
-5 55 -24 0 -77 -35 -107 -69 -31 -36 -39 -40 -66 -35 -44 9 -57 71 -25 122
38 60 176 228 196 239 27 15 77 7 95 -15z m2058 15 c2 -1 11 -22 21 -45 l18
-42 49 32 c48 31 107 41 126 21 5 -4 11 -29 15 -55 6 -40 5 -48 -9 -48 -8 0
-18 -10 -20 -22 -3 -13 -10 -50 -17 -83 -16 -84 -23 -95 -64 -95 -32 0 -34 2
-41 46 -3 25 -4 61 -1 80 l6 36 -44 -36 c-24 -20 -57 -39 -73 -42 -29 -6 -30
-4 -37 35 -4 23 -10 41 -14 41 -4 0 -24 -29 -45 -65 -21 -36 -44 -65 -52 -65
-8 0 -14 -7 -14 -15 0 -10 -10 -15 -29 -15 -25 0 -30 5 -35 36 -7 32 -1 45 58
132 35 53 81 117 102 140 33 39 41 43 67 38 17 -3 32 -7 33 -9z m454 -12 c0
-23 4 -25 45 -25 41 0 45 -2 45 -24 0 -20 -8 -25 -47 -36 -62 -17 -71 -26 -34
-33 25 -5 31 -12 31 -31 0 -21 -6 -26 -37 -31 -74 -13 -103 -26 -118 -55 -8
-16 -15 -32 -15 -35 0 -3 45 -3 100 1 l101 7 -12 -25 c-15 -35 -51 -50 -135
-56 -70 -4 -70 -4 -98 29 -25 29 -27 38 -22 81 20 150 87 258 159 258 33 0 37
-3 37 -25z m-756 7 c2 -4 7 -24 11 -43 7 -36 6 -37 -32 -49 -62 -21 -140 -77
-152 -111 l-10 -30 32 6 c38 8 94 41 105 62 7 11 18 13 46 8 35 -7 37 -9 31
-39 -3 -17 -30 -81 -60 -143 -53 -110 -54 -112 -82 -104 -34 9 -40 39 -20 99
l15 42 -45 0 c-44 0 -81 13 -95 34 -11 16 -10 90 1 118 13 31 115 136 143 148
28 11 105 13 112 2z m-257 -8 c21 -6 22 -7 7 -36 -9 -17 -33 -49 -54 -72 -41
-45 -60 -78 -90 -159 -17 -45 -27 -57 -52 -66 -17 -6 -32 -11 -34 -11 -13 0
-44 88 -50 140 l-7 64 -51 -101 c-47 -93 -53 -100 -74 -92 -25 9 -42 45 -42
87 0 32 55 119 113 179 39 40 41 41 67 28 15 -8 41 -26 58 -40 l31 -26 27 41
c40 61 88 81 151 64z"/>
<path d="M3455 5233 c-34 -9 -66 -35 -91 -75 -13 -21 -24 -42 -24 -48 0 -6 60
-10 165 -10 l165 0 -6 28 c-15 69 -127 126 -209 105z"/>
<path d="M2760 3895 l0 -95 125 0 125 0 0 95 0 95 -125 0 -125 0 0 -95z"/>
<path d="M4040 3885 l0 -86 118 3 117 3 3 83 3 82 -121 0 -120 0 0 -85z"/>
<path d="M2706 2624 c-11 -29 -6 -44 14 -44 26 0 72 23 89 44 12 14 7 16 -42
16 -41 0 -56 -4 -61 -16z"/>
</g>
</svg>
