<?xml version="1.0" standalone="no"?>
<!DOCTYPE svg PUBLIC "-//W3C//DTD SVG 20010904//EN"
 "http://www.w3.org/TR/2001/REC-SVG-20010904/DTD/svg10.dtd">
<svg version="1.0" xmlns="http://www.w3.org/2000/svg"
 width="700.000000pt" height="700.000000pt" viewBox="0 0 700.000000 700.000000"
 preserveAspectRatio="xMidYMid meet">
<metadata>
Created by potrace 1.14, written by Peter Selinger 2001-2017
</metadata>
<g transform="translate(0.000000,700.000000) scale(0.100000,-0.100000)"
fill="#000000" stroke="none">
<path d="M3315 6933 c-395 -19 -816 -113 -1125 -250 -274 -122 -603 -321 -845
-511 -130 -103 -484 -467 -583 -600 -398 -537 -630 -1130 -692 -1771 -52 -532
87 -1262 340 -1789 306 -636 791 -1153 1415 -1507 344 -196 773 -345 1145
-399 264 -38 648 -48 880 -22 430 48 891 185 1235 366 547 287 937 644 1307
1195 300 447 495 1040 539 1635 21 292 -2 646 -62 943 -93 470 -378 1056 -698
1441 -479 576 -1091 975 -1766 1151 -248 65 -461 97 -760 115 -163 9 -198 10
-330 3z m1445 -1363 l0 -60 -605 0 -605 0 0 -246 c0 -138 4 -253 10 -263 5
-11 26 -21 50 -25 31 -5 52 -18 86 -53 60 -61 82 -107 90 -187 l7 -66 -293 0
-292 0 7 63 c4 34 15 81 25 103 33 76 129 154 190 154 20 0 20 5 20 260 l0
260 -605 0 -605 0 0 60 0 60 1260 0 1260 0 0 -60z m-870 -1560 l0 -50 -160 0
-160 0 0 -240 0 -240 175 0 175 0 0 140 0 140 225 0 225 0 0 -140 0 -140 195
0 195 0 0 -55 0 -55 -1260 0 -1260 0 0 55 0 55 210 0 210 0 0 140 0 140 225 0
225 0 0 -140 0 -140 170 0 170 0 0 240 0 240 -170 0 -170 0 0 50 0 50 390 0
390 0 0 -50z m-1627 -1491 l97 -21 0 -33 0 -33 -95 -7 c-52 -4 -98 -12 -103
-18 -5 -7 -24 -52 -42 -102 -35 -93 -54 -125 -76 -125 -17 0 -34 32 -34 62 0
24 21 108 34 140 6 14 1 17 -31 20 -34 3 -38 6 -41 33 -4 35 18 55 64 55 47 0
85 17 91 40 4 13 11 19 22 16 9 -3 60 -14 114 -27z m548 21 c54 0 79 -84 34
-114 -29 -19 -33 -36 -7 -36 24 0 59 -38 67 -72 6 -23 2 -33 -24 -57 -80 -75
-195 -132 -248 -123 -21 3 -23 9 -23 60 0 75 21 160 60 247 41 91 57 108 94
101 15 -3 37 -6 47 -6z m310 0 c35 -19 18 -142 -27 -191 -17 -19 -16 -19 57
-19 41 0 90 5 110 10 37 10 40 14 85 118 15 35 36 68 46 73 36 19 77 13 106
-14 15 -15 42 -32 60 -38 53 -18 47 -25 -68 -72 l-25 -10 24 -6 c31 -8 50 -36
35 -51 -6 -6 -39 -18 -74 -28 -65 -18 -88 -37 -77 -67 7 -16 39 -17 142 -1 5
0 11 -9 13 -22 3 -18 -4 -26 -33 -38 -21 -8 -60 -18 -87 -21 -49 -6 -49 -6
-98 46 l-49 52 -132 -40 c-72 -23 -135 -41 -139 -41 -5 0 -16 7 -24 16 -22 22
-20 90 5 144 19 43 120 210 127 210 2 0 12 -5 23 -10z m1566 -21 c4 -14 15
-19 43 -19 46 0 70 -21 70 -59 0 -33 -31 -64 -115 -114 -64 -38 -83 -62 -110
-145 l-17 -53 -31 19 c-38 22 -38 28 4 160 16 51 29 102 29 115 1 31 35 103
55 114 25 14 67 3 72 -18z m313 6 c5 -14 25 -33 45 -42 19 -9 35 -20 35 -25 0
-12 -45 -28 -99 -35 l-45 -6 42 -18 c66 -28 53 -62 -29 -74 -25 -4 -51 -10
-58 -14 -14 -9 -32 -69 -22 -75 4 -3 29 1 56 9 57 18 121 19 131 4 11 -19 -31
-63 -72 -76 -86 -26 -147 -8 -180 53 -15 27 -16 39 -6 89 14 69 54 160 85 194
44 47 102 55 117 16z m-2453 -7 c29 -24 0 -309 -36 -351 -8 -10 -24 -17 -35
-15 -18 3 -21 11 -24 56 -3 57 -4 57 -53 41 -46 -16 -69 -37 -69 -65 0 -25
-13 -33 -48 -26 -32 6 -47 47 -33 92 14 46 165 247 205 271 31 20 68 18 93 -3z
m1310 -14 c7 -10 13 -30 13 -46 0 -27 -2 -28 -52 -28 -39 0 -57 -5 -75 -22
l-23 -22 47 -25 c43 -23 48 -30 51 -65 4 -48 -22 -79 -93 -112 -56 -26 -86
-30 -118 -13 -29 16 -37 28 -37 62 0 25 3 27 43 27 42 0 87 21 87 41 0 6 -15
27 -34 46 -42 45 -53 89 -29 116 55 60 188 85 220 41z m277 16 c48 -18 34 -48
-69 -145 -52 -49 -95 -98 -95 -107 0 -15 9 -18 58 -18 118 0 125 5 255 184 54
75 94 101 138 91 16 -4 31 -10 34 -15 3 -4 9 -50 15 -102 9 -89 9 -94 -12
-109 -17 -13 -23 -30 -26 -78 -2 -34 -8 -64 -12 -66 -5 -3 -20 -1 -34 5 -25 9
-26 12 -20 65 6 52 5 55 -15 55 -29 0 -27 31 5 70 25 30 28 50 4 35 -24 -15
-70 -89 -70 -112 0 -14 -9 -37 -20 -51 -12 -15 -29 -38 -39 -51 -18 -25 -19
-25 -46 -7 -15 10 -30 27 -32 37 -3 10 -6 19 -7 19 0 0 -28 -11 -61 -25 -34
-14 -80 -25 -107 -25 -133 0 -138 136 -10 272 44 47 102 87 129 88 6 0 23 -4
37 -10z m-1736 -685 c23 -19 41 -25 76 -25 48 0 49 -1 60 -53 6 -24 2 -29 -29
-44 -19 -9 -44 -32 -56 -51 -19 -33 -19 -35 -3 -54 25 -27 82 -60 93 -54 5 3
23 30 39 59 17 30 63 93 103 141 70 86 73 88 108 82 20 -3 41 -13 48 -21 6 -9
14 -60 18 -112 7 -84 5 -98 -9 -109 -11 -7 -21 -38 -28 -78 -10 -60 -13 -66
-35 -66 -27 0 -43 32 -43 86 0 32 -2 35 -22 28 -59 -18 -67 -24 -70 -51 -2
-22 -13 -33 -50 -51 -42 -21 -51 -22 -84 -12 -22 7 -64 39 -102 77 -35 35 -69
62 -75 60 -6 -2 -22 -30 -34 -62 -13 -32 -28 -62 -35 -67 -7 -4 -43 -8 -80 -8
l-66 0 -40 48 c-21 26 -47 62 -56 80 -28 54 -48 43 -77 -38 -14 -40 -19 -45
-49 -48 l-33 -3 6 60 c7 81 110 294 144 299 14 2 26 -4 33 -17 9 -17 20 -21
60 -21 39 0 51 -4 60 -20 21 -40 8 -73 -42 -105 -26 -16 -47 -33 -47 -37 -2
-14 108 -120 120 -116 7 2 22 36 34 74 21 69 113 254 127 254 3 0 20 -11 36
-25z m2695 1 c5 -11 37 -14 174 -11 92 1 178 -2 191 -6 17 -7 22 -16 22 -44 0
-40 -21 -55 -45 -35 -12 10 -24 10 -55 1 -22 -6 -40 -15 -40 -18 0 -4 20 -25
45 -47 82 -74 67 -132 -49 -187 -67 -32 -87 -35 -119 -18 -29 16 -37 28 -37
61 0 33 24 48 75 48 36 0 37 1 30 28 -3 15 -19 50 -33 77 -31 58 -58 67 -126
41 -49 -19 -60 -35 -101 -146 -30 -80 -34 -85 -63 -88 -31 -3 -32 -3 -32 40 0
24 7 68 14 98 13 50 13 56 -1 67 -25 19 -78 26 -102 13 -27 -14 -65 -74 -101
-159 -30 -70 -45 -80 -92 -62 -22 8 -28 20 -38 68 -20 102 -19 101 -54 39 -38
-69 -73 -108 -95 -104 -22 4 -35 48 -27 92 9 47 83 155 123 179 28 16 35 16
65 4 18 -8 41 -23 51 -35 19 -20 19 -20 55 20 54 60 139 97 157 68 11 -17 98
-11 135 9 42 24 66 26 73 7z m-3276 -19 c7 -7 16 -53 19 -105 7 -87 6 -94 -15
-116 -15 -16 -25 -43 -29 -78 -6 -48 -9 -53 -32 -53 -23 0 -25 4 -28 53 -2 28
-5 52 -8 52 -15 0 -54 -27 -90 -62 -32 -31 -48 -39 -70 -36 -33 3 -51 39 -41
79 12 49 155 238 205 271 28 19 66 17 89 -5z m2048 17 c9 -4 25 -24 36 -45 11
-22 21 -39 24 -39 2 0 19 9 38 20 50 30 96 41 118 29 10 -5 23 -28 30 -51 9
-36 9 -44 -6 -54 -10 -8 -25 -47 -36 -95 -22 -94 -31 -109 -65 -109 -30 0 -44
32 -44 101 0 27 -3 49 -6 49 -3 0 -19 -11 -36 -25 -54 -46 -108 -46 -108 1 0
37 -19 26 -60 -34 -69 -101 -126 -118 -124 -37 2 41 87 177 160 252 41 44 50
48 79 37z m475 -18 c7 -18 18 -26 42 -28 49 -5 45 -38 -7 -57 -53 -19 -52 -19
-26 -37 36 -26 22 -45 -49 -68 -48 -16 -69 -28 -80 -48 -8 -15 -12 -30 -9 -33
4 -3 46 -2 95 3 49 5 91 8 92 6 2 -1 1 -12 -3 -24 -9 -28 -56 -48 -137 -56
-64 -6 -64 -6 -92 27 -25 30 -27 37 -21 87 7 60 35 148 61 191 35 60 116 82
134 37z m-762 2 c7 -7 12 -26 12 -43 0 -28 -6 -33 -58 -57 -56 -26 -132 -89
-132 -108 0 -14 47 -12 73 1 12 7 35 23 50 35 33 27 75 31 84 8 8 -22 -12 -83
-62 -191 l-43 -93 -32 12 c-31 10 -32 12 -27 57 3 25 8 53 12 62 5 13 -3 17
-45 21 -66 7 -90 28 -90 84 0 55 11 83 52 130 55 63 106 94 153 94 22 0 46 -5
53 -12z m-254 -4 c25 -10 19 -26 -31 -85 -25 -30 -66 -95 -89 -146 -34 -73
-48 -94 -68 -99 -14 -3 -30 -3 -36 1 -20 12 -41 66 -48 123 l-7 57 -45 -84
c-25 -46 -53 -89 -62 -95 -28 -17 -51 14 -52 71 -1 54 31 114 103 192 39 42
40 42 69 27 16 -8 43 -27 60 -40 l30 -26 26 41 c36 54 101 82 150 63z"/>
<path d="M3440 4899 c-36 -15 -69 -48 -91 -91 l-19 -38 170 0 171 0 -6 23
c-13 40 -35 67 -75 87 -49 25 -116 33 -150 19z"/>
<path d="M2760 3570 l0 -90 125 0 125 0 0 90 0 90 -125 0 -125 0 0 -90z"/>
<path d="M4040 3560 l0 -80 115 0 115 0 0 80 0 80 -115 0 -115 0 0 -80z"/>
<path d="M2701 2288 c-14 -37 4 -44 56 -22 66 27 67 44 4 44 -44 0 -53 -3 -60
-22z"/>
</g>
</svg>
